<svg height="464pt" viewBox="0 0 464 464" width="464pt" xmlns="http://www.w3.org/2000/svg"><path d="m216 128h16v48h-16zm0 0"/><path d="m184 128h16v48h-16zm0 0"/><path d="m184 192h16v48h-16zm0 0"/><path d="m144 240h24v-48h-24c-13.230469 0-24 10.769531-24 24s10.769531 24 24 24zm-8-32h16v16h-16zm0 0"/><path d="m144 176h24v-48h-24c-13.230469 0-24 10.769531-24 24s10.769531 24 24 24zm-8-32h16v16h-16zm0 0"/><path d="m376 165.335938v-6.863282c-5.199219.960938-10.527344 1.527344-16 1.527344s-10.800781-.566406-16-1.527344v6.863282l16 21.328124zm0 0"/><path d="m360 144c39.703125 0 72-32.296875 72-72s-32.296875-72-72-72-72 32.296875-72 72 32.296875 72 72 72zm0-64c-13.230469 0-24-10.769531-24-24 0-10.414062 6.710938-19.214844 16-22.527344v-17.472656h16v17.472656c9.289062 3.3125 16 12.113282 16 22.527344h-16c0-4.414062-3.585938-8-8-8s-8 3.585938-8 8 3.585938 8 8 8c13.230469 0 24 10.769531 24 24 0 10.414062-6.710938 19.214844-16 22.527344v17.472656h-16v-17.472656c-9.289062-3.3125-16-12.113282-16-22.527344h16c0 4.414062 3.585938 8 8 8s8-3.585938 8-8-3.585938-8-8-8zm0 0"/><path d="m398.871094 182.128906-12.070313-4.527344-18.753906 25.007813 25.695313 10.277344zm0 0"/><path d="m321.128906 182.128906 5.128906 30.757813 25.695313-10.277344-18.753906-25.007813zm0 0"/><path d="m440 214.183594c0-9.953125-6.257812-18.984375-15.574219-22.480469l-10.289062-3.855469-7.878907 47.273438-46.257812-18.503906-46.257812 18.496093-7.878907-47.273437-10.289062 3.855468c-9.316407 3.503907-15.574219 12.535157-15.574219 22.488282v25.824218h160zm0 0"/><path d="m216 192h16v48h-16zm0 0"/><path d="m72 128h-48v48h48zm-16 32h-16v-16h16zm0 0"/><path d="m24 464h416v-160h-416zm400-16h-128v-16h128zm-160-48h160v16h-160zm-224-80h128v16h-128zm0 32h160v16h-160zm0 0"/><path d="m24 224h48v16h-48zm0 0"/><path d="m24 192h48v16h-48zm0 0"/><path d="m456 256h-448c-4.414062 0-8 3.585938-8 8v16c0 4.414062 3.585938 8 8 8h448c4.414062 0 8-3.585938 8-8v-16c0-4.40625-3.585938-8-8-8zm0 0"/></svg>